<svg width="22" height="94" viewBox="0 0 22 94" fill="none" xmlns="http://www.w3.org/2000/svg">
<g id="navbar arrow">
<path id="Rectangle 26" d="M0 0L20.5986 17.6024C21.4879 18.3624 22 19.4736 22 20.6434V73.3566C22 74.5264 21.4879 75.6376 20.5986 76.3976L0 94V0Z" fill="#009099"/>
<path id="Vector" d="M7.32915 52.4158L11.6953 46.192L7.32915 39.9681C6.89028 39.3425 6.89028 38.332 7.32915 37.7064C7.76801 37.0808 8.47694 37.0808 8.9158 37.7064L14.0809 45.0691C14.5197 45.6947 14.5197 46.7053 14.0809 47.3309L8.9158 54.6936C8.47694 55.3192 7.76801 55.3192 7.32915 54.6936C6.90154 54.068 6.89028 53.0414 7.32915 52.4158Z" fill="white"/>
</g>
</svg>
