<svg width="22" height="94" viewBox="0 0 22 94" fill="none" xmlns="http://www.w3.org/2000/svg">
<g id="navbar arrow">
<path id="Rectangle 26" d="M0 0L20.5986 17.6024C21.4879 18.3624 22 19.4736 22 20.6434V73.3566C22 74.5264 21.4879 75.6376 20.5986 76.3976L0 94V0Z" fill="#009099"/>
<path id="Vector" d="M14.0809 39.9842L9.71478 46.208L14.0809 52.4319C14.5197 53.0575 14.5197 54.068 14.0809 54.6936C13.642 55.3192 12.9331 55.3192 12.4942 54.6936L7.32918 47.3309C6.89032 46.7053 6.89032 45.6947 7.32918 45.0691L12.4942 37.7064C12.9331 37.0808 13.642 37.0808 14.0809 37.7064C14.5085 38.3319 14.5197 39.3586 14.0809 39.9842Z" fill="white"/>
</g>
</svg>
